<svg xmlns="http://www.w3.org/2000/svg" version="1.1" xmlns:xlink="http://www.w3.org/1999/xlink" xmlns:svgjs="http://svgjs.dev/svgjs" width="1000" height="623" viewBox="0 0 1000 623"><g transform="matrix(1,0,0,1,-0.6060606060606233,0.2522267206477409)"><svg viewBox="0 0 396 247" data-background-color="#010536" preserveAspectRatio="xMidYMid meet" height="623" width="1000" xmlns="http://www.w3.org/2000/svg" xmlns:xlink="http://www.w3.org/1999/xlink"><g id="tight-bounds" transform="matrix(1,0,0,1,0.2400000000000091,-0.09999999999999432)"><svg viewBox="0 0 395.52 247.2" height="247.2" width="395.52"><g><svg></svg></g><g><svg viewBox="0 0 395.52 247.2" height="247.2" width="395.52"><g><g><path xmlns="http://www.w3.org/2000/svg" d="M252.667 239.155c-15.256 5.363-32.127 8.045-50.611 8.045-15.361 0-30.2-2.473-44.52-7.42-10.445-3.608-19.643-8.255-27.594-13.941h147.355c-6.699 5.482-14.909 9.921-24.63 13.316zM141.525 17.964c7.81-5.207 18.745-9.503 32.804-12.887 14.059-3.385 26.946-5.077 38.661-5.077 18.224 0 34.236 2.786 48.034 8.357 8.438 3.439 15.659 7.774 21.664 13.004l-146.086 0c1.609-1.174 3.25-2.306 4.923-3.397z" fill="#fbfbf8" fill-rule="nonzero" stroke="none" stroke-width="1" stroke-linecap="butt" stroke-linejoin="miter" stroke-miterlimit="10" stroke-dasharray="" stroke-dashoffset="0" font-family="none" font-weight="none" font-size="none" text-anchor="none" style="mix-blend-mode: normal" data-fill-palette-color="tertiary"></path></g></g><g transform="matrix(1,0,0,1,2.5053858173171193,37.08)"><svg viewBox="0 0 390.50922836536574 173.04" height="173.04" width="390.50922836536574"><g><svg viewBox="0 0 397.4975999999999 176.13664340768327" height="173.04" width="390.50922836536574"><g><rect width="397.4975999999999" height="6.112044937068074" x="0" y="86.2491981443985" fill="#fbfbf8" opacity="1" stroke-width="0" stroke="transparent" fill-opacity="1" class="rect-o-0" data-fill-palette-color="secondary" rx="1%" id="o-0" data-palette-color="#fbfbf8"></rect></g><g transform="matrix(1,0,0,1,0.9887999999999693,108.36136071777044)"><svg viewBox="0 0 395.52 67.77528268991281" height="67.77528268991281" width="395.52"><g id="textblocktransform"><svg viewBox="0 0 395.52 67.77528268991281" height="67.77528268991281" width="395.52" id="textblock"><g><svg viewBox="0 0 395.52 67.77528268991281" height="67.77528268991281" width="395.52"><g transform="matrix(1,0,0,1,0,0)"><svg width="395.52" viewBox="2.5 -33.75 200.72999572753906 34.400001525878906" height="67.77528268991281" data-palette-color="#fbfbf8"><path d="M26.55-24.05Q24.4-25.6 22.85-26.33 21.3-27.05 19.25-27.05L19.25-27.05Q15.15-27.05 12.2-24.95L12.2-24.95Q9.95-23.3 8.85-20.65 7.75-18 7.75-14.7L7.75-14.7Q7.75-11.55 9.2-9.18 10.65-6.8 12.95-5.55 15.25-4.3 17.75-4.3L17.75-4.3Q20.25-4.3 22.08-5.08 23.9-5.85 25-7.1L25-7.1Q26.7-9.25 26.7-12.8L26.7-12.8Q26.7-13.3 25.9-13.5 25.1-13.7 23.6-13.7L23.6-13.7 20-13.65Q18.55-13.65 17.7-14.2 16.85-14.75 16.85-15.6L16.85-15.6Q16.85-16.8 17.65-17.38 18.45-17.95 19.8-17.95L19.8-17.95Q21.4-17.95 24.1-17.75L24.1-17.75Q26.8-17.55 28-17.55L28-17.55Q29.75-17.55 30.83-16.45 31.9-15.35 31.9-13.25L31.9-13.25Q31.9-11.3 31.05-8.7 30.2-6.1 28.65-4.05L28.65-4.05Q27.15-2.05 24.23-1.03 21.3 0 17.75 0L17.75 0Q14.8 0 12.05-0.95 9.3-1.9 7.45-3.6L7.45-3.6Q5.15-5.75 3.83-8.72 2.5-11.7 2.5-14.65L2.5-14.65Q2.5-18.95 4.53-23.03 6.55-27.1 10-29.35L10-29.35Q11.5-30.35 14.2-31 16.9-31.65 19.15-31.65L19.15-31.65Q22.65-31.65 25.3-30.58 27.95-29.5 29.35-27.5L29.35-27.5Q29.95-26.6 29.95-25.9L29.95-25.9Q29.95-25.1 29.25-24.4 28.55-23.7 27.85-23.7L27.85-23.7Q27.55-23.7 27.15-23.8 26.75-23.9 26.55-24.05L26.55-24.05ZM44.1-2.75Q44.1-1.5 43.1-0.43 42.1 0.65 40.9 0.65L40.9 0.65Q39.5 0.65 38.35-0.13 37.2-0.9 37.2-2.1L37.2-2.1Q37.2-4 37.92-4.9 38.65-5.8 40.1-5.8L40.1-5.8Q41.8-5.8 42.95-4.98 44.1-4.15 44.1-2.75L44.1-2.75ZM74.8-29.35Q74.8-28.45 73.25-26.7L73.25-26.7Q71.4-24.6 63.59-13.8L63.59-13.8Q63.7-7.35 64-4.95L64-4.95Q64.15-3.45 64.15-2.8L64.15-2.8Q64.15-1.15 63.57-0.58 63 0 61.59 0L61.59 0Q60.55 0 59.62-0.63 58.7-1.25 58.7-2.15L58.7-2.15Q58.7-5.8 58.55-12.85L58.55-12.85Q58.55-13.15 58.15-13.85 57.75-14.55 57.65-14.75L57.65-14.75Q56.59-16.6 55.02-18.88 53.45-21.15 52.3-22.3L52.3-22.3Q50.09-24.5 48.84-26.28 47.59-28.05 47.59-28.8L47.59-28.8Q47.59-29.85 48.57-30.48 49.55-31.1 50.7-31.1L50.7-31.1Q51.34-31.1 52.07-30.75 52.8-30.4 53.25-29.75L53.25-29.75Q56.2-25.35 58.5-22.45L58.5-22.45 60.84-19.4Q63-21.6 64.62-23.78 66.25-25.95 68.2-28.95L68.2-28.95 69.05-30.25Q70-31.55 72-31.55L72-31.55Q72.95-31.55 73.87-31 74.8-30.45 74.8-29.35L74.8-29.35ZM100.64-2.4Q100.64-1.3 99.47-0.55 98.29 0.2 97.29 0.2L97.29 0.2Q95.39 0.2 94.27-0.28 93.14-0.75 92.19-2.05L92.19-2.05Q90.89-0.9 88.64-0.33 86.39 0.25 84.49 0.25L84.49 0.25Q81.39 0.25 79.39-1.43 77.39-3.1 77.39-6.35L77.39-6.35Q77.39-7.75 78.14-8.93 78.89-10.1 80.19-11L80.19-11Q81.64-11.95 83.49-12.48 85.34-13 87.34-13L87.34-13Q88.39-13 89.84-12.6 91.29-12.2 92.09-11.75L92.09-11.75 92.09-12.55Q92.09-15.25 90.79-16.28 89.49-17.3 86.59-17.3L86.59-17.3Q85.74-17.3 84.92-16.95 84.09-16.6 83.04-16L83.04-16Q81.64-15.25 80.39-15.25L80.39-15.25Q79.94-15.25 79.54-15.88 79.14-16.5 79.14-17L79.14-17Q79.14-18.45 80.52-19.5 81.89-20.55 83.79-21.08 85.69-21.6 87.19-21.6L87.19-21.6Q88.69-21.6 90.64-21.03 92.59-20.45 93.84-19.45L93.84-19.45Q95.34-18.15 96.17-16.43 96.99-14.7 96.99-12.65L96.99-12.65Q96.99-12 96.89-10.7L96.89-10.7Q96.79-9.3 96.79-8.3L96.79-8.3Q96.79-7.85 96.69-6.95L96.69-6.95Q96.59-5.85 96.59-5.2L96.59-5.2Q96.59-4.6 97.04-4.17 97.49-3.75 98.09-3.75L98.09-3.75 99.49-3.8Q100.04-3.8 100.34-3.4 100.64-3 100.64-2.4L100.64-2.4ZM84.54-3.7Q86.69-3.7 88.14-4.15 89.59-4.6 91.64-5.8L91.64-5.8Q91.84-6.65 91.89-8.05L91.89-8.05Q89.14-9.35 87.34-9.35L87.34-9.35Q85.29-9.35 83.69-8.6 82.09-7.85 82.09-5.95L82.09-5.95Q82.09-5 82.89-4.35 83.69-3.7 84.54-3.7L84.54-3.7ZM126.74-3.85Q126.99-3.75 127.54-3.6 128.09-3.45 128.34-3.3 128.59-3.15 128.59-2.85L128.59-2.85Q128.64-1.65 127.72-0.88 126.79-0.1 125.54-0.1L125.54-0.1Q123.59-0.1 122.49-1.15 121.39-2.2 120.89-4.35L120.89-4.35Q120.69-5.2 120.69-6.7L120.69-6.7Q120.69-7.55 120.79-9.45L120.79-9.45Q120.89-11.45 120.89-12.65L120.89-12.65Q120.89-14.4 119.92-15.73 118.94-17.05 117.19-17.05L117.19-17.05Q116.14-17.05 114.99-16.43 113.84-15.8 113.39-14.9L113.39-14.9Q112.64-13.45 112.34-11.75L112.34-11.75Q111.79-8.75 111.79-5.5L111.79-5.5Q111.79-3.95 111.84-3.1L111.84-3.1Q111.84-2.9 111.87-2.33 111.89-1.75 111.77-1.28 111.64-0.8 111.34-0.4L111.34-0.4Q111.09-0.15 110.57 0.03 110.04 0.2 109.59 0.2L109.59 0.2Q108.89 0.2 107.84-0.4 106.79-1 106.64-1.75L106.64-1.75 106.59-2.6Q106.59-3.05 106.69-3.65L106.69-3.65Q107.29-7.15 107.29-9.75L107.29-9.75Q107.29-10.9 107.24-11.55L107.24-11.55 107.19-13.9Q107.19-15.1 106.59-16.23 105.99-17.35 105.19-17.35L105.19-17.35Q104.94-17.35 104.49-17.18 104.04-17 103.74-17L103.74-17Q103.24-17 102.67-17.5 102.09-18 102.09-18.55L102.09-18.55Q102.09-19.6 102.79-20.25L102.79-20.25Q103.54-20.85 104.27-21.2 104.99-21.55 105.94-21.55L105.94-21.55Q106.74-21.55 107.24-21.4 107.74-21.25 108.59-20.75L108.59-20.75Q109.04-20.5 109.64-19.65 110.24-18.8 110.64-17.25L110.64-17.25Q111.94-19.65 113.87-20.63 115.79-21.6 118.79-21.6L118.79-21.6Q119.94-21.6 121.27-20.85 122.59-20.1 123.54-19.1L123.54-19.1Q124.44-18 125.04-16.38 125.64-14.75 125.64-13.45L125.64-13.45Q125.64-12.7 125.54-11L125.54-11Q125.39-9.65 125.39-8.15L125.39-8.15Q125.39-4.65 126.74-3.85L126.74-3.85ZM136.04 0.2Q135.04 0.2 134.34-0.15 133.64-0.5 133.49-0.9L133.49-0.9Q132.94-2.9 132.94-6.15L132.94-6.15Q132.94-12.15 133.14-15.9L133.14-15.9Q133.34-20.35 133.34-24.45L133.34-24.45Q133.34-25.65 133.04-27.95L133.04-27.95Q132.99-28.35 132.89-29.4 132.79-30.45 132.79-31.35L132.79-31.35Q132.79-32.45 133.56-33.1 134.34-33.75 135.59-33.75L135.59-33.75Q136.59-33.75 137.21-33.13 137.84-32.5 137.84-31.45L137.84-31.45Q137.84-29.85 137.94-26.95L137.94-26.95Q138.04-24.25 138.04-22.9L138.04-22.9Q138.04-21.4 137.94-18.9L137.94-18.9Q137.84-17.4 137.84-16.7L137.84-16.7Q137.84-14.5 137.89-13.05L137.89-13.05Q139.74-14.9 142.74-17.4 145.74-19.9 147.39-20.9L147.39-20.9Q149.14-21.95 149.69-21.95L149.69-21.95Q150.74-21.95 151.49-21.5 152.24-21.05 152.24-20.2L152.24-20.2Q152.24-19.35 151.99-18.85 151.74-18.35 151.09-17.85L151.09-17.85 144.64-13.15Q145.74-12.6 146.51-11.75 147.29-10.9 148.09-9.65L148.09-9.65Q149.79-6.85 150.81-5.55 151.84-4.25 152.69-4.25L152.69-4.25 153.94-4.3Q154.29-4.3 154.56-3.9 154.84-3.5 154.84-2.75L154.84-2.75Q154.84-1.6 153.71-0.9 152.59-0.2 151.19-0.2L151.19-0.2Q149.24-0.2 147.74-1.73 146.24-3.25 144.89-5.85L144.89-5.85Q142.94-9.55 141.04-10.25L141.04-10.25 137.84-7.65 138.04-2.2Q138.04-0.9 137.36-0.35 136.69 0.2 136.04 0.2L136.04 0.2ZM177.84-16.05Q178.24-15.35 178.49-14.03 178.74-12.7 178.74-11.65L178.74-11.65Q178.74-9.7 177.89-6.1L177.89-6.1Q174.44 0.2 167.69 0.2L167.69 0.2Q165.19 0.2 162.59-1.45 159.99-3.1 158.99-5.25L158.99-5.25Q157.64-9.55 157.64-10.7L157.64-10.7Q157.64-12.7 158.51-14.95 159.39-17.2 160.74-18.85L160.74-18.85Q161.59-20 163.79-20.83 165.99-21.65 167.79-21.65L167.79-21.65Q171.29-21.65 173.74-20.33 176.19-19 177.84-16.05L177.84-16.05ZM173.49-8Q173.74-8.65 173.74-11.35L173.74-11.35Q173.74-12.8 173.21-14.2 172.69-15.6 171.69-16.6L171.69-16.6Q171.59-16.7 171.14-16.93 170.69-17.15 169.91-17.38 169.14-17.6 168.14-17.6L168.14-17.6Q165.34-17.6 164.04-15.35 162.74-13.1 162.74-10.25L162.74-10.25Q162.74-9.75 163.01-8.35 163.29-6.95 163.49-6.6L163.49-6.6Q163.64-6.25 164.26-5.63 164.89-5 165.81-4.53 166.74-4.05 167.74-4.05L167.74-4.05Q169.99-4.05 171.34-5.13 172.69-6.2 173.49-8L173.49-8ZM195.23-12.85Q195.38-13.25 196.31-15.75 197.23-18.25 198.03-19.55L198.03-19.55Q199.33-21.6 200.33-21.6L200.33-21.6Q201.73-21.6 202.48-21.08 203.23-20.55 203.23-19.6L203.23-19.6Q203.23-19.15 202.86-18.35 202.48-17.55 202.43-17.4L202.43-17.4Q200.43-13 198.83-7.95L198.83-7.95 197.78-4.05Q197.18-2.15 195.73-0.98 194.28 0.2 192.33 0.2L192.33 0.2Q190.58 0.2 189.08-1.4L189.08-1.4Q188.18-2.8 187.21-4.95 186.23-7.1 185.53-9.15L185.53-9.15 183.78-14.4Q183.23-15.95 182.91-17.05 182.58-18.15 182.58-19.05L182.58-19.05Q182.53-20.1 183.18-20.75 183.83-21.4 184.98-21.4L184.98-21.4Q186.28-21.4 186.83-20.88 187.38-20.35 187.83-19.25L187.83-19.25Q188.03-18.1 188.93-14.55L188.93-14.55 189.28-13.15Q189.73-11.45 190.43-9.7 191.13-7.95 191.83-6.35L191.83-6.35Q191.73-6.6 192.53-4.7L192.53-4.7Q193.03-6.15 193.68-8.25L193.68-8.25 195.23-12.85Z" opacity="1" transform="matrix(1,0,0,1,0,0)" fill="#fbfbf8" class="undefined-text-0" data-fill-palette-color="primary" id="text-0"></path></svg></g></svg></g></svg></g></svg></g><g transform="matrix(1,0,0,1,156.31292218064726,0)"><svg viewBox="0 0 84.87175563870537 70.24908050809465" height="70.24908050809465" width="84.87175563870537"><g><svg xmlns="http://www.w3.org/2000/svg" xmlns:xlink="http://www.w3.org/1999/xlink" version="1.1" x="8" y="0" viewBox="48.000431060791016 43.840599060058594 416.0000915527344 424.3194274902344" enable-background="new 0 0 512 512" xml:space="preserve" height="70.24908050809465" width="68.87175563870537" class="icon-icon-0" data-fill-palette-color="accent" id="icon-0"><path d="M330.605 368.701c-3.633-2.539-8.691-2.68-12.529 0.176-10.943 8.141-31.822 19.926-62.933 22.064-31.109-2.139-51.989-13.924-62.932-22.064-3.21-2.389-7.279-2.68-10.652-1.23-9.263 14.537-24.92 47.629-19.674 99.364h93.258 94.409C354.711 416.262 339.943 383.673 330.605 368.701z" fill="#ffff00" data-fill-palette-color="accent"></path><path d="M206.818 143.955c1.024 2.857 3.496 3.334 4.512 3.404 0.803 0.058 3.551 0.025 5.037-2.792 5.172-9.809 16.124-21.502 38.936-21.502 22.81 0 33.762 11.693 38.934 21.502 1.485 2.816 4.226 2.848 5.036 2.792 1.017-0.07 3.488-0.546 4.516-3.405 4.021-11.22 2.738-24.625 1.512-32.038-13.912-10.499-31.227-16.73-49.998-16.73h0l0 0c-18.772 0-36.086 6.231-49.998 16.73C204.077 119.329 202.794 132.733 206.818 143.955z" fill="#ffff00" data-fill-palette-color="accent"></path><path d="M174.892 273.15c4.829-1.672 9.655-4.168 14.056-7.729 6.617 14.828 20.106 35.121 46.437 45.871-4.828 3.325-9.695 8.008-13.435 14.635-1.777 3.149-0.983 7.313 2.073 9.245 3.384 2.14 7.665 0.917 9.504-2.386 6.626-11.896 18.401-15.109 21.823-15.811 3.401 0.697 15.065 3.879 21.71 15.611 1.516 2.676 4.652 4.213 7.629 3.445 4.26-1.098 6.38-5.889 4.31-9.657-3.771-6.865-8.748-11.684-13.685-15.083 26.293-10.734 39.781-30.984 46.408-45.807 4.374 3.526 9.164 6.002 13.957 7.664 16.494 5.721 35.355-1.99 41.504-16.629 8.059-19.189 10.157-38.674 10.595-50.625 0.164-4.479-5.716-7.092-9.732-4.339-15.961 10.94-29.27 14.013-39.652 13.619v-15.351c0-4.182-4.962-6.48-8.072-3.686-4.423 3.973-9.565 7.666-15.517 10.705-0.838 0.428-1.695 0.84-2.566 1.241l0 0v15.562 27.847 1.896c-0.029 0.09-0.057 0.175-0.087 0.266-2.333 6.908-6.89 17.07-15.323 26.563-4.712 5.305-10.621 10.396-18.057 14.585-5.186 2.921-11.131 5.38-17.884 7.188-1.79 0.48-3.629 0.918-5.537 1.299-1.908-0.381-3.749-0.818-5.538-1.299-7.151-1.915-13.379-4.573-18.779-7.721-6.661-3.882-12.087-8.48-16.486-13.293-9.01-9.855-13.743-20.548-16.102-27.641-0.025-0.077-0.05-0.151-0.075-0.227v-1.622-27.843-15.428c-0.886-0.436-1.758-0.883-2.61-1.345-5.879-3.185-10.97-6.964-15.354-10.982-3.144-2.882-8.19-0.701-8.19 3.564v15.717c-10.404 0.403-23.746-2.663-39.751-13.617-4.022-2.753-9.911-0.14-9.747 4.339 0.438 11.951 2.54 31.437 10.611 50.625C139.483 271.16 158.373 278.871 174.892 273.15z" fill="#ffff00" data-fill-palette-color="accent"></path><path d="M171.38 355.059c4.435-8.871 8.796-16.062 12.37-21.402 4.199-6.277 2.397-14.769-3.995-18.788-28.788-18.101-49.475-36.456-60.089-46.706-4.417-4.265-11.617-3.604-15.132 1.43-5.884 8.427-11.141 16.805-15.89 25.093C96.865 307.213 123.726 342.594 171.38 355.059z" fill="#ffff00" data-fill-palette-color="accent"></path><path d="M68.233 468.16h79.955c-0.104-2.063-0.179-4.104-0.229-6.129-3.214-43.541 7.266-74.16 16.763-92.298 0.312-0.761 0.623-1.527 0.938-2.271-44.978-12.499-72.16-42.795-84.23-59.475-30.658 59.866-34.144 113.266-33.328 140.693C48.425 459.551 57.359 468.16 68.233 468.16z" fill="#ffff00" data-fill-palette-color="accent"></path><path d="M168.194 96.505c0.073 1.856-0.065 3.697-0.249 5.546-0.811 8.155-5.475 32.319 2.135 55.391 0.659 1.667 1.732 4.152 3.279 7.121 4.267 8.191 12.152 20.017 25.009 28.265 0.278 0.178 0.568 0.348 0.851 0.523 13.14 7.636 31.239 12.739 56.083 13.426 21.446-0.593 37.862-4.479 50.406-10.441l-0.011-0.025c0.482-0.212 0.946-0.441 1.418-0.664 1.785-0.892 3.495-1.824 5.121-2.799v0.052c1.23-0.745 2.413-1.525 3.554-2.334 10.845-7.694 17.672-18 21.546-25.497 0.602-1.165 1.129-2.255 1.592-3.263 9.814-24.313 4.594-51.083 3.732-59.755-0.185-1.849-0.322-3.689-0.249-5.546 0.895-22.842 16.815-38.296 28.217-46.487 2.908-2.09 1.059-6.665-2.483-6.135-33.549 5.019-41.018 30.745-41.018 30.745-13.436-7.412-22.883-4.308-28.393-0.479-2.541 1.766-1.822 5.66 1.189 6.374 14.457 3.422 17.471 19.095 17.471 19.095 0.26 2.443 0.457 4.78 0.617 7.059 0.828 4.149 1.931 11.243 1.928 19.409-0.004 7.118-0.85 15.009-3.501 22.405-1.396 3.892-3.944 7.03-7.183 9.184-2.623 1.744-5.69 2.855-9.037 3.091-0.463 0.033-0.925 0.048-1.383 0.048-4.424 0-8.545-1.518-11.811-4.219-1.875-1.55-3.475-3.483-4.676-5.76-5.014-9.51-14.113-14.331-27.046-14.331-12.935 0-22.035 4.821-27.048 14.331-1.201 2.277-2.8 4.21-4.675 5.761-3.267 2.701-7.386 4.218-11.81 4.218-0.459 0-0.921-0.016-1.386-0.048-3.346-0.236-6.412-1.347-9.035-3.091-3.238-2.153-5.786-5.292-7.182-9.184-2.652-7.396-3.497-15.288-3.5-22.405-0.004-8.167 1.099-15.261 1.926-19.411 0.162-2.277 0.358-4.614 0.618-7.057 0 0 3.014-15.673 17.471-19.095 3.012-0.714 3.73-4.608 1.189-6.374-5.51-3.828-14.957-6.933-28.392 0.479 0 0-7.469-25.727-41.018-30.745-3.542-0.53-5.392 4.045-2.483 6.135C151.378 58.209 167.299 73.663 168.194 96.505zM255.302 149.555c8.944 0 16.196 7.251 16.196 16.195s-7.252 16.195-16.196 16.195c-8.944 0-16.195-7.251-16.195-16.195S246.358 149.555 255.302 149.555z" fill="#ffff00" data-fill-palette-color="accent"></path><path d="M238.077 279.502c1.831 1.704 4.663 1.827 6.575 0.215 2.729-2.302 5.957-4.441 7.907-4.607 0.776 0.141 3.854 0.903 7.791 4.571 1.851 1.724 4.676 1.87 6.633 0.27l0 0c2.331-1.906 2.482-5.461 0.283-7.518-7.207-6.741-13.403-7.301-14.193-7.345l-0.28-0.008c-5.3 0-10.847 3.768-14.553 6.91-2.293 1.945-2.381 5.445-0.181 7.494L238.077 279.502z" fill="#ffff00" data-fill-palette-color="accent"></path><path d="M346.34 366.495c1.771 4.185 3.499 8.653 5.145 13.37 6.964 16.488 13.127 39.816 12.566 70.189 0.119 5.563 0.057 11.271-0.239 17.139h79.955c10.874 0 19.808-8.609 20.132-19.479 0.816-27.428-2.67-80.828-33.328-140.693C418.5 323.701 391.318 353.997 346.34 366.495z" fill="#ffff00" data-fill-palette-color="accent"></path><path d="M328.25 332.689c3.572 5.342 7.936 12.53 12.369 21.401 47.654-12.464 74.516-47.845 82.736-60.374-4.748-8.288-10.006-16.665-15.89-25.092-3.515-5.033-10.716-5.693-15.132-1.429-10.613 10.249-31.301 28.604-60.089 46.705C325.853 317.922 324.051 326.412 328.25 332.689z" fill="#ffff00" data-fill-palette-color="accent"></path><path d="M271.035 246.172c5.318-2.915 11.209-3.438 15.41-3.322 3.307 0.091 6.157-2.271 6.691-5.535 0.615-3.761-2.08-7.28-5.872-7.659-11.926-1.193-18.777 6.783-20.495 13.234C266.1 245.409 268.75 247.425 271.035 246.172z" fill="#ffff00" data-fill-palette-color="accent"></path><path d="M242.538 241.726c-2.293-6.27-9.838-13.595-21.607-11.329-3.743 0.721-6.109 4.469-5.156 8.159 0.827 3.203 3.879 5.297 7.164 4.908 4.174-0.495 10.088-0.507 15.647 1.916C240.975 246.421 243.433 244.173 242.538 241.726z" fill="#ffff00" data-fill-palette-color="accent"></path></svg></g></svg></g><g><rect width="78.23147374554533" height="6.112044937068074" y="63.13703557102657" x="241.18467781935263" fill="#fbfbf8" data-fill-palette-color="secondary"></rect><rect width="78.23147374554533" height="6.112044937068074" y="63.13703557102657" x="78.08144843510195" fill="#fbfbf8" data-fill-palette-color="secondary"></rect></g></svg></g></svg></g></svg></g><defs></defs></svg><rect width="395.52" height="247.2" fill="none" stroke="none" visibility="hidden"></rect></g></svg></g></svg>